# xmcd
#
# Track frame offsets: 
#        150
#        13161
#        24491
#        36870
#        49833
#        62149
#        76411
#        90705
#        100585
#        116971
#        133303
#        146324
#        162384
#        173142
#        185576
#        197829
#        211927
#        223628
#        238798
#        251386
#        264758
#        279535
#        290245
#        303035
#        313850
#
# Disc length: 4369 seconds
#
# Revision: 0
# Processed by: cddbd v1.5.2PL0 Copyright (c) Steve Scherf et al.
# Submitted via: ExactAudioCopy v0.95b4
#
DISCID=72110f19
DTITLE=Various Artist - The Best Of Country Music Disc 2
DYEAR=2003
DGENRE=Country
TTITLE0=Merle Haggard - Sing Me Back Home
TTITLE1=Merle Haggard - (My Friends Are Gonna Be) Strangers
TTITLE2=Merle Haggard - The Roots Of My Rising
TTITLE3=Merle Haggard - Swinging Doors
TTITLE4=Merle Haggard - The Bottle Let Me Down
TTITLE5=Merle Haggard - I'm A Lonesome Fugitive
TTITLE6=Merle Haggard - Branded Man
TTITLE7=Merle Haggard - Mama Tried
TTITLE8=Merle Haggard - Hungry Eyes
TTITLE9=Merle Haggard - Rambling Fever
TTITLE10=Merle Haggard - Misery And Gin
TTITLE11=Merle Haggard - It's All In The Movies
TTITLE12=Merle Haggard - Old Man From The Mountain
TTITLE13=Merle Haggard - If We Make It Through December 
TTITLE14=Merle Haggard - Okie From Muskogee
TTITLE15=Merle Haggard - Allways Wanting You
TTITLE16=Merle Haggard - Carolyn
TTITLE17=Billie Joe Spears - Blanket On The Ground
TTITLE18=Billie Joe Spears - '57 Chevrolet
TTITLE19=Billie Joe Spears - Fever
TTITLE20=Billie Joe Spears - I Don't Want To Talk About It
TTITLE21=Billie Joe Spears - I'm So Lonesome I Could Cry
TTITLE22=Billie Joe Spears - What I've Got In Mind
TTITLE23=Billie Joe Spears - Misty Blue
TTITLE24=Billie Joe Spears - I Will Survive
EXTD=
EXTT0=
EXTT1=
EXTT2=
EXTT3=
EXTT4=
EXTT5=
EXTT6=
EXTT7=
EXTT8=
EXTT9=
EXTT10=
EXTT11=
EXTT12=
EXTT13=
EXTT14=
EXTT15=
EXTT16=
EXTT17=
EXTT18=
EXTT19=
EXTT20=
EXTT21=
EXTT22=
EXTT23=
EXTT24=
PLAYORDER=
